<svg width="1440" height="391" viewBox="0 0 1440 391" fill="none" xmlns="http://www.w3.org/2000/svg">
<path d="M-87.5 155.003C-78.5 160.503 45 203.503 111.5 169.003C178 134.503 206 114.503 244.5 155.003C283 195.503 494 28.0031 532.5 24.5031C571 21.0031 532 44.0018 518 66.5029C502.24 91.833 442.5 160.004 456.5 169.003C470.5 178.003 606.5 169.003 615 169.003C623.5 169.003 582.5 152.003 582.5 218.003C582.5 284.003 592.5 222.503 592.5 213.003C592.5 203.503 590.5 131.003 592.5 116.503C594.5 102.003 679.5 -5.49688 743 24.5031C806.5 54.5031 811 123.003 806 146.003C801 169.003 791 235.503 724.5 223.003C658 210.503 659.5 137.503 660 116.503C660.5 95.5031 677 38.5031 724.5 31.5031C772 24.5031 951.5 38.0002 968 31.5002C984.5 25.0002 980.5 -14.6438 952.5 10.5002C924.5 35.6442 861 153.003 858 163.503C855 174.003 1017 174.504 1033.5 169.003C1050 163.503 1021.5 156.963 998 171.963C974.5 186.963 962.5 133.003 966 116.503C969.5 100.003 980 115.003 978 125.503C976 136.003 962 264.503 983 278.003C1004 291.503 1147.5 416.503 1498.5 384.003" stroke="#FFE9BD" stroke-width="3"/>
</svg>
