<svg width="321" height="184" viewBox="0 0 321 184" fill="none" xmlns="http://www.w3.org/2000/svg">
<path fill-rule="evenodd" clip-rule="evenodd" d="M64.7752 68.119C32.6873 64.5294 8.8746 37.7391 0 1.99957V0C8.79167 35.4055 33.3892 63.4831 64.8998 67.008C84.7464 69.2282 94.1698 70.6766 99.3241 72.6118C101.935 73.5918 104.083 74.3434 105.338 75.759C106.167 76.6943 106.695 77.7526 107.494 78.9736C107.866 79.5429 107.982 80.2374 108.416 80.8662C109.095 81.852 109.01 83.4497 108.705 84.8674C108.397 86.2958 107.702 87.938 106.737 89.7002C104.804 93.2288 101.728 97.3474 98.2555 101.384C94.7793 105.425 90.8879 109.404 87.3086 112.654C86.193 113.667 85.1039 114.612 84.0641 115.469C87.8566 116.817 91.744 118.509 95.3777 120.446C100.099 122.963 104.43 125.912 107.588 129.091C110.736 132.261 112.788 135.73 112.788 139.281C112.788 142.738 111.321 148.107 108.472 153.909C105.616 159.727 101.343 166.037 95.6722 171.37C94.6287 172.351 93.5375 173.3 92.3987 174.206C99.9551 175.628 106.931 177.195 112.383 178.763C127.748 183.183 138.652 182.059 146.235 178.787C153.821 175.514 158.149 170.063 160.309 165.712C160.88 164.563 162.212 162.449 164.08 159.642C165.955 156.823 168.39 153.276 171.185 149.246C173.411 146.036 175.865 142.52 178.449 138.82C182.356 133.222 186.559 127.202 190.714 121.178C192.384 118.757 194.045 116.336 195.676 113.944C190.603 111.849 185.38 109.795 180.27 107.786C178.221 106.981 176.19 106.182 174.194 105.391C173.431 109.611 172.01 113.693 170.024 117.124C166.862 122.586 162.197 126.501 156.394 126.501C150.726 126.501 146.694 124.495 144.022 121.223C141.367 117.973 140.105 113.535 139.825 108.744C139.459 102.473 140.769 95.4895 142.975 89.515C142.569 89.0576 142.229 88.5982 141.962 88.1367C141.348 87.0711 141.115 85.9687 141.412 84.8642C141.706 83.7738 142.492 82.774 143.721 81.8496C144.934 80.9379 146.618 80.0699 148.805 79.2374C149.909 78.2598 151.293 77.3801 152.884 76.5898C155.469 75.3063 158.651 74.2347 162.195 73.3604C169.282 71.6114 177.88 70.6356 186.187 70.3568C194.493 70.0781 202.539 70.4951 208.524 71.5461C211.511 72.0706 214.019 72.7589 215.796 73.6169C217.522 74.4507 218.786 75.5611 218.786 77.0295C218.786 77.6944 218.545 78.5746 218.152 79.5965C217.753 80.6351 217.171 81.8799 216.437 83.2962C214.969 86.1297 212.872 89.6878 210.351 93.7222C206.72 99.5303 202.197 106.344 197.374 113.438C201.14 115.007 204.814 116.599 208.283 118.213C213.846 120.802 218.904 123.455 222.992 126.165C223.073 126.218 223.153 126.271 223.232 126.325C232.204 124.142 243.024 121.907 254.138 119.611C256.445 119.135 258.764 118.656 261.083 118.174C274.834 115.315 288.545 112.362 299.368 109.292C304.78 107.757 309.453 106.197 313.04 104.612C314.833 103.819 316.343 103.026 317.533 102.233C318.729 101.437 319.573 100.661 320.067 99.9143L321 100.531C320.391 101.452 319.411 102.326 318.154 103.163C316.893 104.003 315.321 104.826 313.492 105.634C309.836 107.25 305.106 108.826 299.674 110.367C288.807 113.45 275.058 116.411 261.311 119.268C258.989 119.751 256.666 120.23 254.358 120.707C243.642 122.921 233.224 125.073 224.469 127.176C227.834 129.563 230.45 132.02 231.957 134.549C238.68 145.83 237.6 156.083 232.477 162.959C227.372 169.812 218.307 173.227 209.256 170.949C200.117 168.649 196.335 161.299 195.691 153.716C195.37 149.928 195.826 146.056 196.789 142.67C197.75 139.292 199.23 136.351 200.992 134.455C201.648 133.749 202.664 133.074 203.945 132.42C205.234 131.762 206.831 131.106 208.683 130.451C212.189 129.209 216.649 127.956 221.751 126.689C217.84 124.163 213.068 121.673 207.81 119.227C204.289 117.589 200.559 115.973 196.732 114.381C195.057 116.839 193.351 119.326 191.635 121.812C187.479 127.838 183.271 133.867 179.36 139.469C176.778 143.167 174.326 146.68 172.105 149.882C169.311 153.911 166.881 157.451 165.012 160.26C163.136 163.081 161.845 165.135 161.312 166.209C159.056 170.752 154.551 176.417 146.679 179.814C138.804 183.211 127.625 184.311 112.074 179.838C106.422 178.212 99.1115 176.585 91.2124 175.122C86.4173 178.71 80.8262 181.54 74.449 182.972C65.9761 184.875 56.1519 184.304 45.0152 179.819C39.4893 177.593 35.8567 175.766 33.8246 174.28C32.8209 173.546 32.1289 172.841 31.8413 172.148C31.6909 171.785 31.6437 171.407 31.7418 171.036C31.839 170.668 32.0632 170.366 32.3509 170.121C32.9076 169.647 33.7846 169.32 34.8452 169.082C35.9244 168.841 37.2698 168.678 38.8299 168.581C41.9519 168.388 45.9927 168.459 50.6046 168.738C62.1427 169.435 77.3585 171.438 90.9304 173.933C92.3241 172.868 93.649 171.737 94.905 170.556C100.464 165.329 104.661 159.133 107.467 153.417C110.281 147.686 111.669 142.495 111.669 139.281C111.669 136.163 109.856 132.962 106.794 129.879C103.741 126.805 99.5143 123.918 94.8508 121.432C91.0441 119.403 86.9711 117.655 83.0414 116.295C81.1692 117.776 79.4944 118.922 78.1648 119.591C75.8203 120.772 73.1435 120.919 70.6909 120.505C68.2393 120.092 65.9603 119.11 64.3787 117.967C63.59 117.397 62.9464 116.767 62.5502 116.119C62.1549 115.473 61.9658 114.735 62.2513 114.032C62.5325 113.338 63.2068 112.849 64.1405 112.534C65.082 112.216 66.376 112.043 68.0628 112.043C71.9277 112.043 77.2281 113.15 82.8221 115.038C83.9955 114.091 85.2517 113.011 86.5557 111.826C90.1007 108.608 93.9601 104.662 97.4065 100.656C100.856 96.6454 103.876 92.5942 105.755 89.1637C106.695 87.4464 107.335 85.9116 107.61 84.6325C107.888 83.3428 107.919 82.1163 107.494 81.5C107.017 80.8076 106.88 80.0816 106.5 79.5C105.731 78.3241 105.274 77.3735 104.5 76.5C103.382 75.2386 101.394 74.583 98.9302 73.6582C93.9369 71.7835 84.6777 70.3454 64.7752 68.119ZM81.7717 115.867C76.5291 114.151 71.6264 113.161 68.0628 113.161C66.4371 113.161 65.2786 113.33 64.4987 113.593C63.7111 113.859 63.3951 114.189 63.2887 114.451C63.1864 114.703 63.2121 115.057 63.5053 115.537C63.7975 116.014 64.3163 116.543 65.0348 117.062C66.4678 118.097 68.5836 119.016 70.8772 119.403C73.1699 119.789 75.5889 119.636 77.661 118.593C78.7749 118.032 80.1787 117.095 81.7717 115.867ZM89.6975 174.845C76.4408 172.447 61.7446 170.53 50.5371 169.854C45.9454 169.576 41.9557 169.508 38.8991 169.697C37.37 169.792 36.0891 169.95 35.0897 170.173C34.0718 170.401 33.4182 170.681 33.0768 170.972C32.9156 171.109 32.8489 171.227 32.824 171.322C32.8001 171.412 32.7996 171.537 32.8753 171.72C33.0398 172.116 33.5174 172.67 34.4857 173.378C36.3974 174.776 39.9182 176.561 45.4337 178.782C56.3799 183.19 65.9726 183.73 74.2034 181.882C80.0367 180.571 85.2043 178.057 89.6975 174.845ZM223.016 127.528C222.975 127.539 222.933 127.549 222.892 127.559C217.438 128.897 212.71 130.211 209.057 131.504C207.231 132.151 205.684 132.788 204.454 133.416C203.216 134.048 202.337 134.651 201.813 135.215C200.21 136.939 198.798 139.7 197.866 142.976C196.936 146.243 196.497 149.979 196.807 153.622C197.424 160.903 201.003 167.719 209.53 169.865C218.145 172.034 226.747 168.779 231.579 162.292C236.393 155.829 237.521 146.072 230.995 135.121C229.489 132.594 226.725 130.058 223.016 127.528ZM196.319 113C201.186 105.845 205.749 98.9739 209.401 93.1302C211.917 89.1052 213.996 85.5766 215.443 82.7824C216.167 81.3848 216.728 80.1805 217.107 79.1956C217.493 78.194 217.666 77.4762 217.666 77.0295C217.666 76.2746 216.998 75.4396 215.308 74.6233C213.669 73.8312 211.278 73.1647 208.33 72.6471C202.445 71.6137 194.481 71.197 186.225 71.4741C177.969 71.7511 169.453 72.7207 162.463 74.4456C158.968 75.3082 155.87 76.3557 153.383 77.5908C153.081 77.7406 152.789 77.8929 152.507 78.0475C159.632 76.2022 164.956 77.5538 168.629 80.9044C172.856 84.7592 174.753 91.1351 174.838 97.823C174.865 99.9487 174.709 102.118 174.382 104.263C176.44 105.079 178.538 105.904 180.657 106.737C185.844 108.776 191.158 110.866 196.319 113ZM173.314 103.838C173.605 101.839 173.744 99.8192 173.719 97.8371C173.636 91.3029 171.778 85.2905 167.874 81.7299C164.027 78.2212 158.049 76.9693 149.398 80.2086C148.847 80.7154 148.388 81.2409 148.028 81.7844C146.635 83.8881 145.352 86.4454 144.269 89.2561C144.643 89.6298 145.071 90.0113 145.554 90.4006C148.016 92.3847 151.764 94.4725 156.384 96.6556C160.996 98.835 166.441 101.093 172.278 103.425C172.622 103.563 172.967 103.7 173.314 103.838ZM143.844 90.4004C141.8 96.121 140.596 102.739 140.943 108.679C141.215 113.337 142.437 117.514 144.889 120.517C147.324 123.497 151.02 125.383 156.394 125.383C161.633 125.383 165.994 121.852 169.055 116.564C171.007 113.193 172.401 109.15 173.133 104.97C172.707 104.8 172.284 104.632 171.862 104.463C166.022 102.129 160.549 99.8608 155.905 97.6661C151.268 95.4752 147.421 93.3416 144.851 91.2706C144.492 90.9812 144.156 90.6912 143.844 90.4004ZM143.434 88.3189C144.5 85.6448 145.744 83.2075 147.091 81.1732C145.985 81.6941 145.093 82.2181 144.394 82.7429C143.279 83.5811 142.699 84.3905 142.493 85.1545C142.291 85.9044 142.426 86.7013 142.932 87.5784C143.072 87.8212 143.24 88.0681 143.434 88.3189Z" fill="#FFE9BD"/>
</svg>
