<svg width="50" height="50" viewBox="0 0 50 50" fill="none" xmlns="http://www.w3.org/2000/svg">
<g clip-path="url(#clip0)">
<path d="M42.4517 18.619L24.3704 28.6215V24.3896L42.4517 14.0025V18.619Z" fill="#FFE9BD"/>
<path d="M42.4517 26.3132L24.3704 36.3157V32.0838L42.4517 21.6967V26.3132Z" fill="#FFE9BD"/>
<path d="M42.4517 34.7768L24.3704 44.7793V40.5475L42.4517 30.1603V34.7768Z" fill="#FFE9BD"/>
<path d="M24.3704 24.3896V28.6215L7.05839 18.619V14.0025L24.3704 24.3896Z" fill="#FFE9BD"/>
<path d="M24.3704 32.0838V36.3157L7.05839 26.3132V21.6967L24.3704 32.0838Z" fill="#FFE9BD"/>
<path d="M24.3704 40.5475V44.7793L7.05839 34.7768V30.1603L24.3704 40.5475Z" fill="#FFE9BD"/>
<path d="M24.3704 4V20.9272L10.1361 12.4636L24.3704 4Z" fill="#FFE9BD"/>
<path d="M-9.56044 53.9123H-11.4071V58.6288H-12.1611V53.9123H-14V53.2429H-9.56044V53.9123Z" fill="#FFE9BD"/>
<path d="M-5.27063 55.8358C-4.90643 55.923 -4.63201 56.0795 -4.44734 56.3052C-4.25756 56.5257 -4.16266 56.8104 -4.16266 57.1592C-4.16266 57.626 -4.3345 57.9876 -4.67817 58.2441C-5.01672 58.5006 -5.51171 58.6288 -6.16315 58.6288H-8.6253V53.2429H-6.30934C-5.71945 53.2429 -5.26037 53.3634 -4.93208 53.6045C-4.59866 53.8405 -4.43196 54.1816 -4.43196 54.6278C-4.43196 54.9202 -4.50633 55.169 -4.65509 55.3742C-4.79871 55.5794 -5.00389 55.7332 -5.27063 55.8358ZM-7.86357 55.6127H-6.3632C-5.98875 55.6127 -5.70407 55.5383 -5.50915 55.3896C-5.3091 55.2408 -5.20907 55.0228 -5.20907 54.7356C-5.20907 54.4483 -5.3091 54.2303 -5.50915 54.0816C-5.70919 53.9277 -5.99388 53.8507 -6.3632 53.8507H-7.86357V55.6127ZM-6.17854 58.021C-5.3527 58.021 -4.93977 57.7132 -4.93977 57.0977C-4.93977 56.7899 -5.04493 56.5642 -5.25524 56.4206C-5.46042 56.2718 -5.76818 56.1975 -6.17854 56.1975H-7.86357V58.021H-6.17854Z" fill="#FFE9BD"/>
<path d="M1.03147 57.9594V58.6288H-2.87719V53.2429H0.923751V53.9123H-2.10777V55.5665H0.5929V56.2205H-2.10777V57.9594H1.03147Z" fill="#FFE9BD"/>
<path d="M4.34028 53.2429C5.03789 53.2429 5.58674 53.4096 5.98684 53.743C6.38694 54.0764 6.58698 54.5355 6.58698 55.1203C6.58698 55.705 6.38694 56.1641 5.98684 56.4975C5.58674 56.831 5.03789 56.9977 4.34028 56.9977H3.00918V58.6288H2.23976V53.2429H4.34028ZM4.3172 56.3283C4.80449 56.3283 5.17638 56.2257 5.43285 56.0205C5.68933 55.8102 5.81756 55.5101 5.81756 55.1203C5.81756 54.7304 5.68933 54.4329 5.43285 54.2277C5.17638 54.0174 4.80449 53.9123 4.3172 53.9123H3.00918V56.3283H4.3172Z" fill="#FFE9BD"/>
<path d="M10.0194 55.1203C10.6606 55.1203 11.1504 55.2639 11.489 55.5511C11.8326 55.8384 12.0045 56.2616 12.0045 56.8207C12.0045 57.4106 11.8198 57.8594 11.4505 58.1672C11.0863 58.4749 10.5631 58.6288 9.88089 58.6288H7.65726V53.2429H8.41899V55.1203H10.0194ZM9.85011 58.021C10.2964 58.021 10.6375 57.921 10.8734 57.7209C11.1145 57.5157 11.2351 57.2208 11.2351 56.8361C11.2351 56.0974 10.7734 55.7281 9.85011 55.7281H8.41899V58.021H9.85011Z" fill="#FFE9BD"/>
<path d="M20.3407 57.9594V59.806H19.6252V58.6288H15.1933L15.1856 59.806H14.4701L14.4778 57.9594H14.7394C15.0779 57.9389 15.3164 57.6722 15.4549 57.1592C15.5934 56.6412 15.678 55.9128 15.7088 54.9741L15.7627 53.2429H19.5482V57.9594H20.3407ZM16.3859 55.0433C16.3603 55.8025 16.2987 56.4309 16.2013 56.9284C16.1089 57.426 15.9576 57.7696 15.7473 57.9594H18.7865V53.9123H16.4244L16.3859 55.0433Z" fill="#FFE9BD"/>
<path d="M23.8163 58.6904C23.2726 58.6904 22.7827 58.5724 22.3467 58.3364C21.9107 58.0954 21.567 57.7645 21.3157 57.3439C21.0695 56.9233 20.9464 56.4539 20.9464 55.9359C20.9464 55.4178 21.0695 54.9484 21.3157 54.5278C21.567 54.1072 21.9107 53.7789 22.3467 53.543C22.7827 53.3019 23.2726 53.1813 23.8163 53.1813C24.3549 53.1813 24.8422 53.3019 25.2782 53.543C25.7142 53.7789 26.0553 54.1072 26.3015 54.5278C26.5477 54.9433 26.6708 55.4127 26.6708 55.9359C26.6708 56.4591 26.5477 56.931 26.3015 57.3516C26.0553 57.7671 25.7142 58.0954 25.2782 58.3364C24.8422 58.5724 24.3549 58.6904 23.8163 58.6904ZM23.8163 58.0056C24.2113 58.0056 24.5652 57.9158 24.8781 57.7363C25.1961 57.5568 25.4449 57.3106 25.6244 56.9977C25.8091 56.6796 25.9014 56.3257 25.9014 55.9359C25.9014 55.546 25.8091 55.1946 25.6244 54.8818C25.4449 54.5637 25.1961 54.3149 24.8781 54.1354C24.5652 53.9559 24.2113 53.8661 23.8163 53.8661C23.4213 53.8661 23.0623 53.9559 22.7391 54.1354C22.4211 54.3149 22.1697 54.5637 21.9851 54.8818C21.8055 55.1946 21.7158 55.546 21.7158 55.9359C21.7158 56.3257 21.8055 56.6796 21.9851 56.9977C22.1697 57.3106 22.4211 57.5568 22.7391 57.7363C23.0623 57.9158 23.4213 58.0056 23.8163 58.0056Z" fill="#FFE9BD"/>
<path d="M32.9082 58.6288L32.9005 54.7048L30.9539 57.9748H30.5999L28.6533 54.7279V58.6288H27.9147V53.2429H28.5456L30.7923 57.0284L33.0082 53.2429H33.6391L33.6468 58.6288H32.9082Z" fill="#FFE9BD"/>
<path d="M39.7979 58.6904C39.2593 58.6904 38.772 58.5724 38.336 58.3364C37.9052 58.0954 37.5666 57.7671 37.3204 57.3516C37.0742 56.931 36.9511 56.4591 36.9511 55.9359C36.9511 55.4127 37.0742 54.9433 37.3204 54.5278C37.5666 54.1072 37.9077 53.7789 38.3437 53.543C38.7797 53.3019 39.267 53.1813 39.8056 53.1813C40.2262 53.1813 40.611 53.2531 40.9598 53.3968C41.3086 53.5353 41.6061 53.743 41.8523 54.02L41.3522 54.5047C40.9469 54.079 40.4417 53.8661 39.8364 53.8661C39.4363 53.8661 39.0747 53.9559 38.7515 54.1354C38.4284 54.3149 38.1745 54.5637 37.9898 54.8818C37.8103 55.1946 37.7205 55.546 37.7205 55.9359C37.7205 56.3257 37.8103 56.6796 37.9898 56.9977C38.1745 57.3106 38.4284 57.5568 38.7515 57.7363C39.0747 57.9158 39.4363 58.0056 39.8364 58.0056C40.4366 58.0056 40.9418 57.7902 41.3522 57.3593L41.8523 57.844C41.6061 58.121 41.306 58.3313 40.9521 58.4749C40.6033 58.6186 40.2186 58.6904 39.7979 58.6904Z" fill="#FFE9BD"/>
<path d="M46.5531 53.9123H44.7065V58.6288H43.9525V53.9123H42.1136V53.2429H46.5531V53.9123Z" fill="#FFE9BD"/>
<path d="M49.5888 53.2429C50.2864 53.2429 50.8353 53.4096 51.2354 53.743C51.6355 54.0764 51.8355 54.5355 51.8355 55.1203C51.8355 55.705 51.6355 56.1641 51.2354 56.4975C50.8353 56.831 50.2864 56.9977 49.5888 56.9977H48.2577V58.6288H47.4883V53.2429H49.5888ZM49.5657 56.3283C50.053 56.3283 50.4249 56.2257 50.6814 56.0205C50.9379 55.8102 51.0661 55.5101 51.0661 55.1203C51.0661 54.7304 50.9379 54.4329 50.6814 54.2277C50.4249 54.0174 50.053 53.9123 49.5657 53.9123H48.2577V56.3283H49.5657Z" fill="#FFE9BD"/>
<path d="M55.4046 58.6904C54.8609 58.6904 54.371 58.5724 53.935 58.3364C53.499 58.0954 53.1553 57.7645 52.904 57.3439C52.6578 56.9233 52.5347 56.4539 52.5347 55.9359C52.5347 55.4178 52.6578 54.9484 52.904 54.5278C53.1553 54.1072 53.499 53.7789 53.935 53.543C54.371 53.3019 54.8609 53.1813 55.4046 53.1813C55.9432 53.1813 56.4305 53.3019 56.8665 53.543C57.3025 53.7789 57.6436 54.1072 57.8898 54.5278C58.136 54.9433 58.2592 55.4127 58.2592 55.9359C58.2592 56.4591 58.136 56.931 57.8898 57.3516C57.6436 57.7671 57.3025 58.0954 56.8665 58.3364C56.4305 58.5724 55.9432 58.6904 55.4046 58.6904ZM55.4046 58.0056C55.7996 58.0056 56.1535 57.9158 56.4664 57.7363C56.7844 57.5568 57.0332 57.3106 57.2127 56.9977C57.3974 56.6796 57.4897 56.3257 57.4897 55.9359C57.4897 55.546 57.3974 55.1946 57.2127 54.8818C57.0332 54.5637 56.7844 54.3149 56.4664 54.1354C56.1535 53.9559 55.7996 53.8661 55.4046 53.8661C55.0096 53.8661 54.6506 53.9559 54.3274 54.1354C54.0094 54.3149 53.758 54.5637 53.5734 54.8818C53.3939 55.1946 53.3041 55.546 53.3041 55.9359C53.3041 56.3257 53.3939 56.6796 53.5734 56.9977C53.758 57.3106 54.0094 57.5568 54.3274 57.7363C54.6506 57.9158 55.0096 58.0056 55.4046 58.0056Z" fill="#FFE9BD"/>
<path d="M59.503 53.2429H60.2647V57.3978L63.4501 53.2429H64.158V58.6288H63.4039V54.4817L60.2108 58.6288H59.503V53.2429ZM61.8189 52.8659C61.3983 52.8659 61.0726 52.7761 60.8418 52.5966C60.6161 52.4119 60.5006 52.1503 60.4955 51.8118H61.0418C61.0469 52.0118 61.1162 52.1683 61.2496 52.2811C61.3881 52.3888 61.5778 52.4427 61.8189 52.4427C62.0498 52.4427 62.2344 52.3888 62.3729 52.2811C62.5165 52.1683 62.5909 52.0118 62.596 51.8118H63.1346C63.1295 52.1452 63.0115 52.4042 62.7807 52.5889C62.555 52.7735 62.2344 52.8659 61.8189 52.8659Z" fill="#FFE9BD"/>
</g>
<defs>
<clipPath id="clip0">
<rect width="50" height="50" fill="white"/>
</clipPath>
</defs>
</svg>
