<svg width="22" height="20" viewBox="0 0 22 20" fill="none" xmlns="http://www.w3.org/2000/svg">
<path d="M15.5 1C13.8 1 12.1 1.79746 11 3.09333C9.9 1.79746 8.2 1 6.5 1C3.4 1 1 3.39238 1 6.48254C1 10.2705 4.4 13.3606 9.6 17.946L11 19.2419L12.4 17.946C17.5 13.2609 21 10.1708 21 6.48254C21 3.39238 18.6 1 15.5 1ZM11.1 16.5505H11L10.9 16.4508C6.1 12.1644 3 9.37333 3 6.48254C3 4.48889 4.5 2.99365 6.5 2.99365C8 2.99365 9.5 3.99047 10.1 5.38603H12C12.5 3.99047 14 2.99365 15.5 2.99365C17.5 2.99365 19 4.48889 19 6.48254C19 9.37333 15.9 12.1644 11.1 16.5505Z" fill="#FFE9BD" stroke="#20232A"/>
</svg>
