<svg width="51" height="37" viewBox="0 0 51 37" fill="none" xmlns="http://www.w3.org/2000/svg">
<g opacity="0.5">
<path d="M37.0707 10.3767L25.4668 16.7959V14.0801L37.0707 7.41406V10.3767Z" fill="#F8F8F8"/>
<path d="M37.0707 15.3142L25.4668 21.7334V19.0176L37.0707 12.3516V15.3142Z" fill="#F8F8F8"/>
<path d="M37.0707 20.7478L25.4668 27.167V24.4512L37.0707 17.7852V20.7478Z" fill="#F8F8F8"/>
<path d="M25.4664 14.0801V16.7959L14.3563 10.3767V7.41406L25.4664 14.0801Z" fill="white"/>
<path d="M25.4664 19.0176V21.7334L14.3563 15.3142V12.3516L25.4664 19.0176Z" fill="white"/>
<path d="M25.4664 24.4512V27.167L14.3563 20.7478V17.7852L25.4664 24.4512Z" fill="white"/>
<path d="M25.4667 0.996094V11.8593L16.3318 6.42769L25.4667 0.996094Z" fill="white"/>
<path d="M3.69091 33.0277H2.50584V36.0546H2.02193V33.0277H0.841797V32.5981H3.69091V33.0277Z" fill="white"/>
<path d="M6.44394 34.2622C6.67766 34.3181 6.85378 34.4185 6.97228 34.5634C7.09408 34.7049 7.15498 34.8876 7.15498 35.1115C7.15498 35.411 7.0447 35.6431 6.82415 35.8077C6.60688 35.9723 6.28922 36.0546 5.87115 36.0546H4.29105V32.5981H5.77733C6.1559 32.5981 6.45052 32.6755 6.6612 32.8302C6.87517 32.9816 6.98216 33.2005 6.98216 33.4869C6.98216 33.6746 6.93443 33.8342 6.83896 33.9659C6.74679 34.0976 6.61511 34.1963 6.44394 34.2622ZM4.77989 34.119H5.74277C5.98307 34.119 6.16577 34.0712 6.29086 33.9758C6.41925 33.8803 6.48344 33.7404 6.48344 33.5561C6.48344 33.3717 6.41925 33.2318 6.29086 33.1363C6.16248 33.0376 5.97978 32.9882 5.74277 32.9882H4.77989V34.119ZM5.86127 35.6645C6.39127 35.6645 6.65626 35.467 6.65626 35.072C6.65626 34.8745 6.58878 34.7296 6.45381 34.6374C6.32214 34.542 6.12462 34.4942 5.86127 34.4942H4.77989V35.6645H5.86127Z" fill="white"/>
<path d="M10.4884 35.625V36.0546H7.97994V32.5981H10.4192V33.0277H8.47372V34.0893H10.2069V34.5091H8.47372V35.625H10.4884Z" fill="white"/>
<path d="M12.6118 32.5981C13.0595 32.5981 13.4117 32.7051 13.6685 32.9191C13.9253 33.133 14.0536 33.4277 14.0536 33.8029C14.0536 34.1782 13.9253 34.4728 13.6685 34.6868C13.4117 34.9008 13.0595 35.0078 12.6118 35.0078H11.7576V36.0546H11.2638V32.5981H12.6118ZM12.597 34.5782C12.9097 34.5782 13.1484 34.5123 13.313 34.3807C13.4776 34.2457 13.5599 34.0531 13.5599 33.8029C13.5599 33.5528 13.4776 33.3618 13.313 33.2302C13.1484 33.0952 12.9097 33.0277 12.597 33.0277H11.7576V34.5782H12.597Z" fill="white"/>
<path d="M16.2564 33.8029C16.6679 33.8029 16.9823 33.8951 17.1995 34.0795C17.4201 34.2638 17.5304 34.5354 17.5304 34.8942C17.5304 35.2728 17.4119 35.5608 17.1748 35.7583C16.9411 35.9558 16.6053 36.0546 16.1675 36.0546H14.7405V32.5981H15.2293V33.8029H16.2564ZM16.1478 35.6645C16.4342 35.6645 16.6531 35.6003 16.8045 35.4719C16.9592 35.3403 17.0366 35.151 17.0366 34.9041C17.0366 34.43 16.7403 34.193 16.1478 34.193H15.2293V35.6645H16.1478Z" fill="white"/>
<path d="M22.8802 35.625V36.8101H22.421V36.0546H19.5768L19.5719 36.8101H19.1127L19.1176 35.625H19.2855C19.5027 35.6118 19.6558 35.4407 19.7447 35.1115C19.8336 34.779 19.8879 34.3115 19.9076 33.7091L19.9422 32.5981H22.3716V35.625H22.8802ZM20.3422 33.7536C20.3257 34.2408 20.2862 34.644 20.2237 34.9633C20.1644 35.2826 20.0673 35.5032 19.9323 35.625H21.8828V33.0277H20.3669L20.3422 33.7536Z" fill="white"/>
<path d="M25.1107 36.0941C24.7617 36.0941 24.4474 36.0184 24.1676 35.867C23.8877 35.7122 23.6672 35.4999 23.5059 35.23C23.3479 34.96 23.2689 34.6588 23.2689 34.3264C23.2689 33.9939 23.3479 33.6927 23.5059 33.4227C23.6672 33.1528 23.8877 32.9421 24.1676 32.7907C24.4474 32.636 24.7617 32.5586 25.1107 32.5586C25.4563 32.5586 25.769 32.636 26.0489 32.7907C26.3287 32.9421 26.5476 33.1528 26.7056 33.4227C26.8636 33.6894 26.9426 33.9906 26.9426 34.3264C26.9426 34.6621 26.8636 34.965 26.7056 35.2349C26.5476 35.5016 26.3287 35.7122 26.0489 35.867C25.769 36.0184 25.4563 36.0941 25.1107 36.0941ZM25.1107 35.6546C25.3641 35.6546 25.5913 35.597 25.7921 35.4818C25.9962 35.3666 26.1558 35.2086 26.2711 35.0078C26.3896 34.8037 26.4488 34.5765 26.4488 34.3264C26.4488 34.0762 26.3896 33.8507 26.2711 33.6499C26.1558 33.4458 25.9962 33.2861 25.7921 33.1709C25.5913 33.0557 25.3641 32.9981 25.1107 32.9981C24.8572 32.9981 24.6268 33.0557 24.4194 33.1709C24.2153 33.2861 24.054 33.4458 23.9355 33.6499C23.8203 33.8507 23.7627 34.0762 23.7627 34.3264C23.7627 34.5765 23.8203 34.8037 23.9355 35.0078C24.054 35.2086 24.2153 35.3666 24.4194 35.4818C24.6268 35.597 24.8572 35.6546 25.1107 35.6546Z" fill="white"/>
<path d="M30.9455 36.0546L30.9405 33.5363L29.6913 35.6349H29.4641L28.2149 33.5511V36.0546H27.7408V32.5981H28.1457L29.5876 35.0275L31.0097 32.5981H31.4146L31.4195 36.0546H30.9455Z" fill="white"/>
<path d="M35.367 36.0941C35.0214 36.0941 34.7086 36.0184 34.4288 35.867C34.1523 35.7122 33.935 35.5016 33.777 35.2349C33.619 34.965 33.54 34.6621 33.54 34.3264C33.54 33.9906 33.619 33.6894 33.777 33.4227C33.935 33.1528 34.154 32.9421 34.4338 32.7907C34.7136 32.636 35.0263 32.5586 35.3719 32.5586C35.6419 32.5586 35.8888 32.6047 36.1126 32.6969C36.3365 32.7858 36.5274 32.9191 36.6854 33.0968L36.3644 33.4079C36.1044 33.1347 35.7801 32.9981 35.3917 32.9981C35.1349 32.9981 34.9029 33.0557 34.6955 33.1709C34.4881 33.2861 34.3251 33.4458 34.2066 33.6499C34.0914 33.8507 34.0338 34.0762 34.0338 34.3264C34.0338 34.5765 34.0914 34.8037 34.2066 35.0078C34.3251 35.2086 34.4881 35.3666 34.6955 35.4818C34.9029 35.597 35.1349 35.6546 35.3917 35.6546C35.7768 35.6546 36.1011 35.5164 36.3644 35.2398L36.6854 35.5509C36.5274 35.7287 36.3348 35.8637 36.1077 35.9558C35.8838 36.048 35.6369 36.0941 35.367 36.0941Z" fill="white"/>
<path d="M39.7022 33.0277H38.5171V36.0546H38.0332V33.0277H36.8531V32.5981H39.7022V33.0277Z" fill="white"/>
<path d="M41.6504 32.5981C42.0981 32.5981 42.4503 32.7051 42.7071 32.9191C42.9638 33.133 43.0922 33.4277 43.0922 33.8029C43.0922 34.1782 42.9638 34.4728 42.7071 34.6868C42.4503 34.9008 42.0981 35.0078 41.6504 35.0078H40.7961V36.0546H40.3023V32.5981H41.6504ZM41.6356 34.5782C41.9483 34.5782 42.187 34.5123 42.3515 34.3807C42.5161 34.2457 42.5984 34.0531 42.5984 33.8029C42.5984 33.5528 42.5161 33.3618 42.3515 33.2302C42.187 33.0952 41.9483 33.0277 41.6356 33.0277H40.7961V34.5782H41.6356Z" fill="white"/>
<path d="M45.3827 36.0941C45.0338 36.0941 44.7194 36.0184 44.4396 35.867C44.1598 35.7122 43.9392 35.4999 43.7779 35.23C43.6199 34.96 43.5409 34.6588 43.5409 34.3264C43.5409 33.9939 43.6199 33.6927 43.7779 33.4227C43.9392 33.1528 44.1598 32.9421 44.4396 32.7907C44.7194 32.636 45.0338 32.5586 45.3827 32.5586C45.7284 32.5586 46.0411 32.636 46.3209 32.7907C46.6007 32.9421 46.8196 33.1528 46.9776 33.4227C47.1356 33.6894 47.2146 33.9906 47.2146 34.3264C47.2146 34.6621 47.1356 34.965 46.9776 35.2349C46.8196 35.5016 46.6007 35.7122 46.3209 35.867C46.0411 36.0184 45.7284 36.0941 45.3827 36.0941ZM45.3827 35.6546C45.6362 35.6546 45.8633 35.597 46.0641 35.4818C46.2682 35.3666 46.4279 35.2086 46.5431 35.0078C46.6616 34.8037 46.7208 34.5765 46.7208 34.3264C46.7208 34.0762 46.6616 33.8507 46.5431 33.6499C46.4279 33.4458 46.2682 33.2861 46.0641 33.1709C45.8633 33.0557 45.6362 32.9981 45.3827 32.9981C45.1292 32.9981 44.8988 33.0557 44.6914 33.1709C44.4873 33.2861 44.326 33.4458 44.2075 33.6499C44.0923 33.8507 44.0347 34.0762 44.0347 34.3264C44.0347 34.5765 44.0923 34.8037 44.2075 35.0078C44.326 35.2086 44.4873 35.3666 44.6914 35.4818C44.8988 35.597 45.1292 35.6546 45.3827 35.6546Z" fill="white"/>
<path d="M48.0129 32.5981H48.5017V35.2645L50.546 32.5981H51.0002V36.0546H50.5163V33.3931L48.4671 36.0546H48.0129V32.5981ZM49.4991 32.3562C49.2292 32.3562 49.0202 32.2986 48.872 32.1833C48.7272 32.0648 48.6531 31.897 48.6498 31.6797H49.0004C49.0037 31.8081 49.0482 31.9085 49.1337 31.9809C49.2226 32.05 49.3444 32.0846 49.4991 32.0846C49.6473 32.0846 49.7658 32.05 49.8547 31.9809C49.9468 31.9085 49.9946 31.8081 49.9979 31.6797H50.3435C50.3402 31.8937 50.2645 32.0599 50.1164 32.1784C49.9715 32.2969 49.7658 32.3562 49.4991 32.3562Z" fill="white"/>
</g>
</svg>
