<svg width="286" height="180" viewBox="0 0 286 180" fill="none" xmlns="http://www.w3.org/2000/svg">
<path fill-rule="evenodd" clip-rule="evenodd" d="M56.9793 56.4622C28.3105 53.2513 7.92896 32.2107 0 0.24072L0.970595 0C8.82547 31.6712 28.9376 52.3152 57.0906 55.4684C74.8225 57.4544 83.2417 58.7501 87.8468 60.4811C90.1791 61.3578 91.5642 62.356 92.6852 63.6222C93.4259 64.4588 94.0583 65.4269 94.7719 66.519C95.1046 67.0283 95.4549 67.5645 95.8421 68.127C96.4491 69.0088 96.5004 70.1759 96.2278 71.4442C95.9531 72.7219 95.3318 74.1908 94.4694 75.7672C92.7426 78.9236 89.9948 82.6078 86.8921 86.2189C83.7863 89.8335 80.3095 93.3926 77.1116 96.2997C76.1149 97.2058 75.1419 98.0517 74.2128 98.8179C77.6012 100.024 81.0745 101.538 84.321 103.27C88.5395 105.522 92.4086 108.159 95.2303 111.004C98.0428 113.839 99.8762 116.942 99.8762 120.119C99.8762 123.211 98.5655 128.014 96.0203 133.204C93.4685 138.408 89.651 144.053 84.5841 148.823C83.6517 149.701 82.6768 150.549 81.6594 151.36C88.4106 152.632 94.6436 154.034 99.5145 155.437C113.242 159.39 122.984 158.385 129.759 155.458C136.537 152.53 140.403 147.654 142.334 143.762C142.844 142.734 144.034 140.843 145.702 138.332C147.378 135.81 149.553 132.637 152.051 129.032C154.04 126.161 156.232 123.016 158.54 119.706C162.031 114.699 165.786 109.313 169.498 103.925C170.99 101.759 172.475 99.594 173.932 97.4538C169.399 95.5797 164.733 93.743 160.168 91.9458C158.337 91.2252 156.523 90.5109 154.739 89.8031C154.058 93.578 152.788 97.2298 151.013 100.298C148.188 105.185 144.02 108.686 138.836 108.686C133.772 108.686 130.169 106.892 127.782 103.965C125.41 101.058 124.283 97.088 124.032 92.8022C123.705 87.1932 124.875 80.9459 126.847 75.6015C126.484 75.1923 126.18 74.7814 125.942 74.3686C125.392 73.4154 125.185 72.4292 125.45 71.4413C125.713 70.4659 126.415 69.5715 127.513 68.7446C128.597 67.9291 130.102 67.1526 132.056 66.408C133.042 65.5334 134.278 64.7465 135.7 64.0395C138.009 62.8914 140.852 61.9329 144.018 61.1507C150.351 59.5862 158.032 58.7134 165.454 58.464C172.875 58.2147 180.064 58.5877 185.411 59.5278C188.08 59.997 190.321 60.6127 191.908 61.3802C193.45 62.1261 194.579 63.1194 194.579 64.4329C194.579 65.0276 194.364 65.815 194.013 66.7292C193.656 67.6582 193.136 68.7717 192.481 70.0386C191.169 72.5733 189.296 75.7561 187.043 79.365C183.799 84.5604 179.758 90.6559 175.449 97.0011C178.814 98.4044 182.096 99.8291 185.195 101.273C190.166 103.589 194.685 105.962 198.338 108.386C198.409 108.433 198.481 108.481 198.552 108.529C206.568 106.577 216.235 104.577 226.164 102.523C228.225 102.097 230.298 101.669 232.369 101.237C244.655 98.6807 256.905 96.0388 266.575 93.2925C271.411 91.9191 275.585 90.5239 278.79 89.1061C280.392 88.3973 281.741 87.6874 282.805 86.9781C283.873 86.2657 284.627 85.5716 285.068 84.904L285.902 85.4556C285.357 86.2796 284.482 87.0614 283.359 87.8101C282.232 88.5618 280.828 89.2979 279.194 90.0206C275.928 91.4659 271.702 92.8759 266.848 94.2545C257.139 97.012 244.855 99.6605 232.573 102.216C230.498 102.648 228.423 103.077 226.361 103.504C216.787 105.484 207.479 107.409 199.656 109.291C202.664 111.426 205 113.623 206.347 115.886C212.353 125.977 211.388 135.148 206.811 141.3C202.251 147.43 194.151 150.485 186.065 148.447C177.899 146.389 174.52 139.814 173.946 133.031C173.658 129.642 174.066 126.179 174.926 123.15C175.785 120.128 177.107 117.498 178.682 115.801C179.268 115.17 180.175 114.566 181.32 113.982C182.472 113.393 183.898 112.806 185.553 112.22C188.686 111.109 192.67 109.988 197.228 108.855C193.734 106.595 189.471 104.368 184.773 102.179C181.627 100.714 178.294 99.269 174.875 97.8452C173.379 100.043 171.854 102.268 170.322 104.492C166.609 109.882 162.849 115.275 159.355 120.286C157.048 123.595 154.857 126.737 152.873 129.602C150.376 133.206 148.205 136.372 146.535 138.885C144.859 141.408 143.706 143.246 143.23 144.207C141.214 148.27 137.189 153.338 130.156 156.376C123.12 159.416 113.132 160.399 99.2378 156.398C94.1886 154.943 87.6569 153.488 80.5995 152.179C76.3154 155.389 71.32 157.92 65.6223 159.202C58.0522 160.904 49.2748 160.393 39.3248 156.381C34.3877 154.39 31.1423 152.755 29.3266 151.426C28.4299 150.77 27.8116 150.139 27.5546 149.519C27.4203 149.194 27.3781 148.857 27.4658 148.524C27.5526 148.196 27.7529 147.925 28.01 147.706C28.5073 147.282 29.2909 146.989 30.2385 146.777C31.2027 146.561 32.4047 146.415 33.7986 146.329C36.5879 146.156 40.1982 146.219 44.3187 146.468C54.6273 147.092 68.2217 148.884 80.3476 151.116C81.5927 150.163 82.7765 149.152 83.8986 148.095C88.8653 143.419 92.6152 137.877 95.1224 132.764C97.6362 127.637 98.8762 122.994 98.8762 120.119C98.8762 117.329 97.2568 114.466 94.5203 111.708C91.793 108.959 88.0168 106.376 83.8502 104.153C80.4491 102.338 76.8102 100.773 73.2991 99.5568C71.6264 100.882 70.1301 101.907 68.9421 102.506C66.8475 103.561 64.4559 103.693 62.2647 103.323C60.0743 102.953 58.0381 102.075 56.6251 101.053C55.9203 100.543 55.3454 99.9792 54.9914 99.3999C54.6382 98.822 54.4692 98.1618 54.7243 97.5322C54.9756 96.912 55.578 96.4742 56.4122 96.1924C57.2534 95.9082 58.4095 95.7535 59.9166 95.7535C63.3696 95.7535 68.1052 96.7434 73.1032 98.4328C74.1516 97.5857 75.2739 96.6189 76.439 95.5598C79.6062 92.6805 83.0544 89.1509 86.1336 85.5672C89.2159 81.9798 91.9133 78.3559 93.5921 75.2873C94.4325 73.7511 95.0042 72.3782 95.2501 71.234C95.4982 70.0803 95.3978 69.2453 95.0183 68.6939C94.592 68.0746 94.2236 67.5102 93.8839 66.9899C93.1972 65.938 92.6282 65.0664 91.9364 64.2851C90.9375 63.1567 89.6958 62.2445 87.4949 61.4172C83.0337 59.7402 74.7611 58.4538 56.9793 56.4622ZM72.1647 99.1743C67.4808 97.6393 63.1004 96.7535 59.9166 96.7535C58.4641 96.7535 57.4291 96.9044 56.7323 97.1398C56.0286 97.3775 55.7463 97.6729 55.6511 97.9077C55.5598 98.1331 55.5827 98.4498 55.8447 98.8785C56.1058 99.3058 56.5693 99.7784 57.2112 100.243C58.4915 101.169 60.3819 101.991 62.4311 102.337C64.4795 102.683 66.6408 102.546 68.4921 101.613C69.4872 101.111 70.7415 100.272 72.1647 99.1743ZM79.246 151.931C67.4019 149.786 54.2716 148.072 44.2583 147.467C40.1559 147.219 36.5914 147.158 33.8604 147.327C32.4942 147.411 31.3498 147.553 30.4569 147.753C29.5475 147.956 28.9636 148.207 28.6586 148.467C28.5145 148.59 28.4549 148.695 28.4327 148.78C28.4113 148.861 28.4108 148.973 28.4785 149.136C28.6254 149.491 29.0522 149.986 29.9173 150.619C31.6253 151.87 34.7709 153.466 39.6988 155.453C49.4786 159.397 58.0491 159.88 65.4029 158.226C70.6146 157.054 75.2316 154.805 79.246 151.931ZM198.359 109.606C198.322 109.615 198.285 109.624 198.248 109.633C193.375 110.83 189.151 112.005 185.887 113.162C184.256 113.74 182.873 114.311 181.775 114.872C180.669 115.437 179.883 115.977 179.415 116.481C177.983 118.024 176.721 120.493 175.888 123.423C175.058 126.346 174.666 129.688 174.942 132.947C175.494 139.46 178.691 145.557 186.309 147.477C194.007 149.417 201.692 146.505 206.009 140.703C210.311 134.921 211.319 126.193 205.487 116.397C204.142 114.137 201.672 111.868 198.359 109.606ZM174.506 96.6093C178.855 90.2089 182.931 84.0628 186.195 78.8354C188.443 75.2349 190.299 72.0785 191.593 69.579C192.24 68.3288 192.741 67.2516 193.08 66.3705C193.424 65.4745 193.579 64.8325 193.579 64.4329C193.579 63.7576 192.982 63.0107 191.472 62.2805C190.007 61.5719 187.871 60.9757 185.238 60.5127C179.98 59.5883 172.864 59.2156 165.488 59.4634C158.112 59.7113 150.503 60.5786 144.258 62.1216C141.135 62.8931 138.367 63.8302 136.145 64.935C135.876 65.069 135.615 65.2052 135.362 65.3435C141.729 63.6929 146.485 64.9019 149.767 67.8991C153.543 71.3473 155.239 77.0508 155.314 83.0333C155.338 84.9348 155.199 86.8748 154.907 88.7938C156.745 89.5238 158.62 90.2617 160.514 91.0071C165.147 92.8312 169.896 94.7003 174.506 96.6093ZM153.953 88.4141C154.213 86.6255 154.337 84.8189 154.314 83.0459C154.241 77.2009 152.581 71.8226 149.093 68.6376C145.656 65.4989 140.315 64.379 132.586 67.2767C132.092 67.73 131.682 68.2001 131.361 68.6863C130.116 70.5681 128.97 72.8556 128.002 75.37C128.336 75.7042 128.719 76.0455 129.151 76.3937C131.35 78.1685 134.699 80.0361 138.826 81.989C142.947 83.9385 147.812 85.9585 153.027 88.0445C153.334 88.1675 153.643 88.2907 153.953 88.4141ZM127.623 76.3936C125.796 81.5108 124.721 87.4307 125.031 92.7439C125.274 96.9105 126.366 100.647 128.557 103.333C130.732 106 134.035 107.686 138.836 107.686C143.516 107.686 147.412 104.528 150.147 99.7979C151.891 96.7822 153.137 93.1654 153.791 89.426C153.411 89.2747 153.032 89.1237 152.656 88.973C147.437 86.8855 142.548 84.8562 138.399 82.8929C134.256 80.9331 130.819 79.0245 128.523 77.172C128.202 76.9131 127.902 76.6536 127.623 76.3936ZM127.257 74.5316C128.209 72.1395 129.321 69.9592 130.524 68.1396C129.536 68.6055 128.738 69.0743 128.115 69.5436C127.118 70.2935 126.6 71.0175 126.416 71.701C126.236 72.3717 126.356 73.0846 126.808 73.8692C126.933 74.0864 127.083 74.3072 127.257 74.5316Z" fill="#FFE9BD"/>
</svg>
