<svg width="205" height="69" viewBox="0 0 205 69" fill="none" xmlns="http://www.w3.org/2000/svg">
<rect x="0.5" y="67.5137" width="66.8416" height="204" transform="rotate(-90 0.5 67.5137)" stroke="#FFE9BD"/>
<rect x="0.5" y="67.5137" width="33.6582" height="35.8704" transform="rotate(-90 0.5 67.5137)" stroke="#FFE9BD"/>
<rect x="168.63" y="67.5137" width="33.6582" height="35.8704" transform="rotate(-90 168.63 67.5137)" stroke="#FFE9BD"/>
<rect x="0.5" y="33.5918" width="32.9208" height="51.356" transform="rotate(-90 0.5 33.5918)" fill="#FFE9BD" stroke="#FFE9BD"/>
<rect x="153.144" y="33.5918" width="32.9208" height="51.356" transform="rotate(-90 153.144 33.5918)" stroke="#FFE9BD"/>
<rect x="52.1199" y="33.5918" width="32.9208" height="34.3956" transform="rotate(-90 52.1199 33.5918)" stroke="#FFE9BD"/>
<rect x="119.222" y="33.5918" width="32.9208" height="33.6582" transform="rotate(-90 119.222 33.5918)" stroke="#FFE9BD"/>
<path d="M92.1751 26.7184L92.1751 42.4907L48.668 42.4907L48.668 67.2759L102.499 67.2759L102.499 26.7184L92.1751 26.7184Z" stroke="#FFE9BD"/>
<path d="M112.823 26.7184L112.823 42.4908L156.33 42.4907L156.33 67.2759L102.499 67.2759L102.499 26.7184L112.823 26.7184Z" stroke="#FFE9BD"/>
</svg>
